<svg id="svg" version="1.1" xmlns="http://www.w3.org/2000/svg" xmlns:xlink="http://www.w3.org/1999/xlink" width="50" height="39" viewBox="0, 0, 400,421.0526315789474"><g id="svgg"><path id="path0" d="M0.000 210.526 L 0.000 421.053 200.000 421.053 L 400.000 421.053 400.000 210.526 L 400.000 0.000 200.000 0.000 L 0.000 0.000 0.000 210.526 M96.905 47.544 C 96.685 56.952,96.186 78.623,95.795 95.702 C 95.405 112.781,94.967 131.807,94.822 137.982 C 94.678 144.158,94.204 164.763,93.769 183.772 C 92.536 237.714,91.614 277.991,91.230 294.693 C 91.036 303.112,90.719 316.928,90.525 325.395 C 90.331 333.862,90.017 347.500,89.827 355.702 C 89.638 363.904,89.438 373.140,89.384 376.228 C 89.329 379.316,89.242 382.257,89.191 382.763 L 89.098 383.684 82.615 383.684 L 76.132 383.684 76.231 382.325 C 76.285 381.577,76.642 374.018,77.024 365.526 C 77.406 357.035,77.839 347.561,77.985 344.474 C 78.132 341.386,78.843 325.952,79.566 310.175 C 80.920 280.620,81.303 272.260,82.808 239.561 C 83.292 229.044,83.923 215.307,84.211 209.035 C 84.499 202.763,85.131 189.026,85.615 178.509 C 86.099 167.991,86.730 154.254,87.018 147.982 C 87.892 128.952,89.279 98.787,89.648 90.789 C 90.350 75.579,92.113 37.194,92.245 34.263 C 92.319 32.604,92.437 31.189,92.506 31.120 C 92.682 30.944,97.083 30.209,97.205 30.336 C 97.260 30.392,97.125 38.136,96.905 47.544 M110.761 68.465 C 111.028 88.173,111.361 112.272,111.499 122.018 C 111.637 131.763,111.948 154.224,112.191 171.930 C 112.433 189.636,112.751 212.570,112.896 222.895 C 113.041 233.219,113.514 267.482,113.945 299.035 C 114.377 330.588,114.811 361.668,114.909 368.102 C 115.007 374.536,115.088 380.872,115.088 382.181 L 115.088 384.561 107.807 384.561 L 100.526 384.561 100.526 383.180 C 100.526 382.420,100.802 358.006,101.139 328.926 C 102.113 244.922,103.289 142.580,103.852 92.719 C 104.138 67.439,104.424 43.577,104.487 39.693 L 104.603 32.632 107.438 32.632 L 110.274 32.632 110.761 68.465 M290.114 73.990 C 307.464 77.482,319.669 90.922,321.221 108.246 C 321.467 110.982,321.472 301.368,321.227 304.211 C 319.684 322.099,306.586 335.927,288.527 338.733 C 285.915 339.138,164.725 339.207,161.667 338.804 C 144.287 336.517,131.174 323.541,128.569 306.053 C 128.221 303.723,128.218 109.202,128.565 106.579 C 130.808 89.629,143.860 76.355,160.789 73.807 C 162.329 73.575,170.229 73.546,225.351 73.570 L 288.158 73.597 290.114 73.990 M163.026 75.389 C 163.292 75.429,163.726 75.429,163.991 75.389 C 164.257 75.349,164.039 75.316,163.509 75.316 C 162.978 75.316,162.761 75.349,163.026 75.389 M285.749 75.390 C 286.064 75.429,286.538 75.429,286.801 75.389 C 287.065 75.348,286.807 75.317,286.228 75.318 C 285.649 75.319,285.433 75.351,285.749 75.390 M300.175 79.377 C 300.175 79.425,300.412 79.587,300.702 79.737 C 300.991 79.887,301.228 79.970,301.228 79.921 C 301.228 79.873,300.991 79.711,300.702 79.561 C 300.412 79.412,300.175 79.329,300.175 79.377 M140.522 85.921 L 139.035 87.456 140.570 85.969 C 141.414 85.151,142.105 84.460,142.105 84.434 C 142.105 84.306,141.904 84.495,140.522 85.921 M308.947 85.877 C 309.471 86.408,309.940 86.842,309.988 86.842 C 310.036 86.842,309.647 86.408,309.123 85.877 C 308.599 85.346,308.130 84.912,308.082 84.912 C 308.034 84.912,308.423 85.346,308.947 85.877 M310.351 87.423 C 310.351 87.454,310.607 87.710,310.921 87.993 L 311.491 88.509 310.976 87.939 C 310.496 87.407,310.351 87.288,310.351 87.423 M314.649 93.333 C 314.799 93.623,314.961 93.860,315.009 93.860 C 315.057 93.860,314.974 93.623,314.825 93.333 C 314.675 93.044,314.513 92.807,314.465 92.807 C 314.416 92.807,314.499 93.044,314.649 93.333 M130.220 107.807 C 130.222 108.193,130.258 108.330,130.300 108.112 C 130.341 107.894,130.340 107.578,130.296 107.410 C 130.252 107.243,130.218 107.421,130.220 107.807 M130.087 206.316 C 130.087 259.820,130.107 281.708,130.132 254.956 C 130.156 228.204,130.156 184.428,130.132 157.675 C 130.107 130.923,130.087 152.811,130.087 206.316 M319.561 206.228 C 319.561 259.395,319.581 281.171,319.605 254.620 C 319.630 228.068,319.630 184.568,319.605 157.953 C 319.581 131.338,319.561 153.061,319.561 206.228 M195.307 132.928 C 195.476 132.972,195.752 132.972,195.921 132.928 C 196.090 132.884,195.952 132.848,195.614 132.848 C 195.276 132.848,195.138 132.884,195.307 132.928 M206.667 137.456 C 207.191 137.987,207.659 138.421,207.707 138.421 C 207.756 138.421,207.366 137.987,206.842 137.456 C 206.318 136.925,205.850 136.491,205.801 136.491 C 205.753 136.491,206.143 136.925,206.667 137.456 M166.883 150.877 C 166.883 151.215,166.919 151.353,166.963 151.184 C 167.007 151.015,167.007 150.739,166.963 150.570 C 166.919 150.401,166.883 150.539,166.883 150.877 M208.147 162.675 L 207.632 163.246 208.202 162.730 C 208.733 162.250,208.853 162.105,208.717 162.105 C 208.687 162.105,208.430 162.362,208.147 162.675 M194.430 169.244 C 194.599 169.288,194.875 169.288,195.044 169.244 C 195.213 169.200,195.075 169.164,194.737 169.164 C 194.399 169.164,194.261 169.200,194.430 169.244 M216.482 170.482 L 215.877 171.140 216.535 170.536 C 217.147 169.973,217.274 169.825,217.140 169.825 C 217.110 169.825,216.814 170.121,216.482 170.482 M319.339 304.386 C 319.339 304.724,319.375 304.862,319.419 304.693 C 319.463 304.524,319.463 304.248,319.419 304.079 C 319.375 303.910,319.339 304.048,319.339 304.386 M130.220 304.649 C 130.222 305.035,130.258 305.172,130.300 304.954 C 130.341 304.736,130.340 304.420,130.296 304.252 C 130.252 304.085,130.218 304.263,130.220 304.649 M140.614 326.667 C 141.478 327.535,142.225 328.246,142.273 328.246 C 142.322 328.246,141.654 327.535,140.789 326.667 C 139.925 325.798,139.178 325.088,139.130 325.088 C 139.082 325.088,139.750 325.798,140.614 326.667 M308.856 326.711 L 307.281 328.333 308.904 326.758 C 310.411 325.295,310.606 325.088,310.479 325.088 C 310.453 325.088,309.722 325.818,308.856 326.711 M162.765 337.142 C 162.983 337.184,163.299 337.182,163.467 337.138 C 163.635 337.094,163.456 337.060,163.070 337.062 C 162.684 337.064,162.547 337.100,162.765 337.142 M286.274 337.142 C 286.492 337.184,286.808 337.182,286.976 337.138 C 287.143 337.094,286.965 337.060,286.579 337.062 C 286.193 337.064,286.056 337.100,286.274 337.142 M194.591 337.325 C 211.156 337.349,238.313 337.349,254.942 337.325 C 271.570 337.300,258.018 337.280,224.825 337.280 C 191.632 337.280,178.026 337.300,194.591 337.325 " stroke="none" fill="#9c1c1c" fill-rule="evenodd"></path><path id="path1" d="M263.596 177.128 C 248.341 179.418,239.406 189.875,239.406 205.439 C 239.405 228.956,259.857 242.476,280.571 232.651 C 292.718 226.890,298.446 211.423,293.396 198.015 C 289.156 186.758,281.715 179.799,271.404 177.446 C 270.122 177.153,264.855 176.939,263.596 177.128 M271.317 180.072 C 272.281 180.210,273.741 180.484,274.561 180.680 C 291.876 184.819,299.186 213.020,286.136 225.331 C 274.447 236.357,255.754 235.546,247.770 223.666 C 236.513 206.916,245.298 182.135,263.246 180.011 C 264.114 179.908,265.022 179.790,265.263 179.748 C 266.000 179.621,269.462 179.807,271.317 180.072 M264.298 184.030 C 250.060 186.058,241.521 199.613,245.562 213.772 C 250.681 231.708,276.739 235.624,286.776 219.966 C 292.424 211.156,291.078 197.417,283.858 190.180 C 279.100 185.410,271.465 183.010,264.298 184.030 M270.966 192.902 C 277.808 194.685,281.256 199.702,281.006 207.515 C 280.765 215.028,277.162 219.136,269.486 220.647 C 260.415 222.433,254.210 217.892,253.145 208.690 C 251.950 198.364,261.035 190.316,270.966 192.902 M185.877 203.872 C 168.797 204.814,155.078 213.923,147.455 229.386 C 135.189 254.265,144.957 282.544,170.526 296.178 C 199.206 311.471,234.813 292.189,239.765 258.684 C 241.053 249.972,238.592 236.964,234.670 231.750 C 233.610 230.341,232.366 228.289,231.340 226.254 C 230.455 224.500,227.952 221.437,225.010 218.508 C 216.060 209.597,204.654 204.577,191.722 203.860 C 190.051 203.767,188.605 203.701,188.509 203.714 C 188.412 203.726,187.228 203.798,185.877 203.872 M190.702 219.127 C 203.340 220.246,216.089 228.577,221.561 239.290 C 230.171 256.146,217.645 280.604,198.684 283.961 C 178.521 287.531,156.445 265.948,158.921 245.086 C 159.930 236.582,165.123 228.947,173.770 223.252 C 178.945 219.844,184.237 218.555,190.702 219.127 M188.684 222.917 C 167.700 226.065,156.372 248.859,167.159 266.228 C 177.940 283.588,201.249 285.073,214.198 269.226 C 224.199 256.986,222.541 241.292,210.108 230.508 C 203.591 224.854,195.315 221.922,188.684 222.917 " stroke="none" fill="#dadbdb" fill-rule="evenodd"></path><path id="path2" d="M162.747 75.464 C 146.776 76.872,133.791 88.899,130.667 105.179 L 130.263 107.281 130.263 206.316 L 130.263 305.351 130.680 307.456 C 133.754 322.988,145.105 334.077,160.702 336.785 C 163.570 337.283,286.079 337.283,288.947 336.785 C 304.815 334.029,316.220 322.657,319.073 306.747 C 319.563 304.014,319.560 108.645,319.070 105.789 C 316.209 89.117,303.119 76.902,286.555 75.449 C 283.977 75.223,165.317 75.237,162.747 75.464 M198.158 99.908 C 206.652 100.860,214.789 103.981,221.962 109.039 C 243.762 124.411,251.086 154.991,238.245 177.029 L 237.690 177.982 238.889 176.823 C 257.577 158.755,285.525 161.862,299.823 183.596 C 307.198 194.806,308.713 210.352,303.675 223.101 C 293.242 249.499,257.504 256.255,237.779 235.558 L 235.996 233.687 236.698 235.396 C 249.364 266.207,225.401 301.514,191.842 301.488 C 163.328 301.465,139.256 274.794,142.358 246.659 C 145.893 214.591,174.645 196.397,205.877 206.464 C 214.321 209.186,223.061 215.374,229.206 222.982 C 229.868 223.803,230.347 224.316,230.269 224.123 C 225.393 211.987,225.777 198.588,231.320 187.417 L 232.567 184.906 230.362 187.075 C 216.663 200.550,196.633 205.380,179.062 199.446 C 150.675 189.858,136.302 153.999,149.938 126.788 C 159.262 108.180,178.129 97.663,198.158 99.908 M189.180 101.582 C 160.962 104.327,140.851 133.105,147.553 161.149 C 154.970 192.187,185.267 208.383,213.328 196.312 C 239.285 185.147,249.941 158.227,238.743 132.107 C 230.476 112.822,209.082 99.646,189.180 101.582 M200.263 106.571 C 230.010 111.791,247.887 148.198,232.985 173.213 C 225.210 186.265,209.907 194.913,194.587 194.912 C 159.036 194.910,139.388 152.048,161.373 122.456 C 170.175 110.609,186.132 104.092,200.263 106.571 M187.066 115.089 C 177.813 116.750,169.222 122.617,164.194 130.709 C 150.283 153.094,169.203 186.943,195.614 186.920 C 211.471 186.907,226.731 174.975,229.929 160.090 C 235.112 135.959,211.120 110.770,187.066 115.089 M199.646 117.455 C 218.363 121.148,232.819 145.385,226.226 162.018 C 220.754 175.822,205.766 185.309,192.018 183.671 C 169.746 181.017,156.165 149.118,169.148 129.960 C 175.139 121.119,189.136 115.380,199.646 117.455 M264.737 166.839 C 237.764 169.166,221.520 195.243,230.625 221.599 C 241.531 253.171,288.623 254.718,302.022 223.946 C 313.924 196.613,292.898 164.410,264.737 166.839 M269.737 170.712 C 286.244 171.954,298.469 184.237,301.065 202.189 C 304.121 223.321,290.538 240.353,269.352 241.958 C 237.077 244.402,220.269 206.312,242.733 181.635 C 248.904 174.856,256.785 171.246,266.930 170.552 C 267.123 170.539,268.386 170.611,269.737 170.712 " stroke="none" fill="#040404" fill-rule="evenodd"></path><path id="path3" d="M94.869 30.613 C 92.122 31.080,92.405 30.687,92.245 34.263 C 92.113 37.194,90.350 75.579,89.648 90.789 C 89.279 98.787,87.892 128.952,87.018 147.982 C 86.730 154.254,86.099 167.991,85.615 178.509 C 85.131 189.026,84.499 202.763,84.211 209.035 C 83.923 215.307,83.292 229.044,82.808 239.561 C 81.303 272.260,80.920 280.620,79.566 310.175 C 78.843 325.952,78.132 341.386,77.985 344.474 C 77.839 347.561,77.406 357.035,77.024 365.526 C 76.642 374.018,76.285 381.577,76.231 382.325 L 76.132 383.684 82.615 383.684 L 89.098 383.684 89.191 382.763 C 89.242 382.257,89.329 379.316,89.384 376.228 C 89.438 373.140,89.638 363.904,89.827 355.702 C 90.017 347.500,90.331 333.862,90.525 325.395 C 90.719 316.928,91.036 303.112,91.230 294.693 C 91.614 277.991,92.536 237.714,93.769 183.772 C 94.204 164.763,94.678 144.158,94.822 137.982 C 94.967 131.807,95.405 112.781,95.795 95.702 C 96.186 78.623,96.685 56.952,96.905 47.544 C 97.125 38.136,97.260 30.392,97.205 30.336 C 97.150 30.279,96.099 30.404,94.869 30.613 M104.487 39.693 C 104.424 43.577,104.138 67.439,103.852 92.719 C 103.289 142.580,102.113 244.922,101.139 328.926 C 100.802 358.006,100.526 382.420,100.526 383.180 L 100.526 384.561 107.807 384.561 L 115.088 384.561 115.088 382.181 C 115.088 380.872,115.007 374.536,114.909 368.102 C 114.811 361.668,114.377 330.588,113.945 299.035 C 113.514 267.482,113.041 233.219,112.896 222.895 C 112.751 212.570,112.433 189.636,112.191 171.930 C 111.948 154.224,111.637 131.763,111.499 122.018 C 111.361 112.272,111.028 88.173,110.761 68.465 L 110.274 32.632 107.438 32.632 L 104.603 32.632 104.487 39.693 M160.789 73.807 C 143.860 76.355,130.808 89.629,128.565 106.579 C 128.218 109.202,128.221 303.723,128.569 306.053 C 131.174 323.541,144.287 336.517,161.667 338.804 C 164.725 339.207,285.915 339.138,288.527 338.733 C 306.586 335.927,319.684 322.099,321.227 304.211 C 321.472 301.368,321.467 110.982,321.221 108.246 C 319.669 90.922,307.464 77.482,290.114 73.990 L 288.158 73.597 225.351 73.570 C 170.229 73.546,162.329 73.575,160.789 73.807 M288.969 75.626 C 291.087 75.981,293.853 76.652,295.088 77.112 C 298.487 78.377,300.771 79.494,303.140 81.050 C 312.140 86.961,317.870 96.123,319.325 106.930 C 319.673 109.514,319.677 302.897,319.329 305.526 C 318.814 309.420,317.670 313.365,316.108 316.629 C 311.054 327.194,301.052 334.813,289.708 336.739 C 285.972 337.374,284.879 337.383,223.421 337.327 L 162.895 337.272 160.614 336.873 C 144.612 334.077,133.127 322.490,130.413 306.404 C 130.099 304.540,130.088 301.121,130.088 206.228 L 130.088 107.982 130.486 105.702 C 133.369 89.181,145.112 77.981,162.281 75.377 C 164.425 75.052,286.977 75.293,288.969 75.626 M193.930 122.112 C 171.285 124.258,159.702 147.879,172.001 166.832 C 185.313 187.346,218.642 180.962,223.696 156.930 C 224.161 154.718,224.355 150.150,224.049 148.597 C 220.643 131.282,208.630 120.719,193.930 122.112 M199.464 133.368 C 210.083 135.921,216.397 150.754,210.660 159.671 C 206.421 166.260,196.925 170.554,190.341 168.859 C 182.123 166.743,175.877 155.935,177.703 146.991 C 179.634 137.537,189.947 131.080,199.464 133.368 M265.115 192.633 C 257.358 193.722,252.212 200.625,253.145 208.690 C 254.210 217.892,260.415 222.433,269.486 220.647 C 277.162 219.136,280.765 215.028,281.006 207.515 C 281.324 197.587,274.611 191.300,265.115 192.633 M185.175 219.141 C 174.052 220.170,162.429 230.408,159.553 241.711 C 154.116 263.081,177.010 287.799,198.684 283.961 C 217.645 280.604,230.171 256.146,221.561 239.290 C 215.142 226.722,199.123 217.851,185.175 219.141 M196.053 223.239 C 206.202 225.365,216.224 234.102,219.303 243.509 C 227.225 267.708,198.303 289.958,176.930 276.107 C 161.240 265.939,158.405 246.281,170.646 232.533 C 175.401 227.192,181.360 224.016,188.684 222.917 C 189.845 222.742,194.694 222.955,196.053 223.239 " stroke="none" fill="#eb1c24" fill-rule="evenodd"></path><path id="path4" d="M187.018 99.930 C 158.739 103.334,139.471 131.919,145.995 160.789 C 153.367 193.409,184.800 210.423,214.370 197.798 C 220.193 195.312,225.832 191.531,230.362 187.075 L 232.567 184.906 231.320 187.417 C 224.332 201.499,225.726 219.861,234.687 231.773 C 235.197 232.451,235.614 233.072,235.614 233.152 C 235.614 233.430,239.564 237.428,241.140 238.746 C 257.783 252.662,284.228 250.014,297.881 233.065 C 308.759 219.561,309.588 198.440,299.823 183.596 C 285.525 161.862,257.577 158.755,238.889 176.823 L 237.690 177.982 238.245 177.029 C 249.382 157.916,245.562 131.996,229.134 115.203 C 217.965 103.787,202.267 98.094,187.018 99.930 M198.605 101.849 C 224.346 105.413,243.058 126.970,243.068 153.070 C 243.083 190.058,199.554 213.219,168.724 192.626 C 155.931 184.081,146.971 167.826,146.243 151.842 C 144.928 122.950,171.028 98.031,198.605 101.849 M190.263 106.310 C 154.607 109.583,139.282 155.531,164.907 182.334 C 191.141 209.776,240.798 188.584,238.282 151.021 C 236.517 124.669,214.418 104.093,190.263 106.310 M197.658 115.092 C 220.407 118.973,235.887 142.997,228.961 163.671 C 223.999 178.483,205.256 189.552,190.250 186.532 C 165.829 181.619,151.557 151.044,164.194 130.709 C 171.330 119.226,184.866 112.909,197.658 115.092 M191.228 117.350 C 174.091 120.096,164.166 131.063,164.141 147.281 C 164.116 162.818,173.681 177.886,186.404 182.353 C 204.936 188.860,227.772 172.652,227.783 152.982 C 227.795 133.150,208.712 114.548,191.228 117.350 M199.596 122.201 C 210.797 123.667,219.107 131.400,222.872 143.860 C 227.587 159.462,218.599 174.502,202.281 178.318 C 184.616 182.448,169.185 171.264,167.081 152.807 C 165.099 135.418,181.638 119.850,199.596 122.201 M192.895 133.148 C 180.216 135.239,173.885 147.670,179.651 159.153 C 184.995 169.799,194.504 172.148,204.741 165.353 C 212.094 160.473,214.363 154.042,211.645 145.789 C 208.680 136.786,201.242 131.771,192.895 133.148 M272.744 167.118 C 295.979 170.499,311.077 196.849,303.339 220.512 C 293.605 250.274,251.571 255.618,234.382 229.278 C 228.060 219.590,226.314 204.906,230.129 193.509 C 236.023 175.900,254.492 164.463,272.744 167.118 M264.574 170.728 C 240.594 172.554,225.263 200.819,236.057 223.305 C 249.373 251.045,292.595 247.138,300.186 217.509 C 305.189 197.979,294.660 177.164,277.206 172.078 C 274.215 171.206,268.901 170.417,266.930 170.552 C 266.737 170.565,265.677 170.644,264.574 170.728 M271.404 177.446 C 281.715 179.799,289.156 186.758,293.396 198.015 C 296.544 206.375,295.347 216.884,290.391 224.386 C 283.301 235.120,265.677 239.148,254.017 232.699 C 240.970 225.482,235.365 206.351,242.126 192.110 C 246.070 183.803,253.455 178.650,263.596 177.128 C 264.855 176.939,270.122 177.153,271.404 177.446 M265.263 179.748 C 265.022 179.790,264.114 179.908,263.246 180.011 C 250.162 181.559,241.120 195.336,243.083 210.730 C 244.891 224.900,254.808 233.927,267.632 233.074 C 284.861 231.929,295.225 219.410,292.399 203.158 C 290.370 191.490,283.484 182.813,274.561 180.680 C 271.760 180.010,266.692 179.502,265.263 179.748 M273.421 184.450 C 285.529 187.487,291.856 198.111,289.839 212.018 C 287.840 225.794,272.227 233.638,258.333 227.845 C 239.432 219.964,240.183 191.901,259.474 185.233 C 263.716 183.766,269.419 183.446,273.421 184.450 M186.277 203.813 C 186.689 203.850,187.321 203.849,187.680 203.812 C 188.039 203.774,187.702 203.744,186.930 203.744 C 186.158 203.745,185.864 203.776,186.277 203.813 M190.487 203.813 C 190.900 203.850,191.531 203.849,191.891 203.812 C 192.250 203.774,191.912 203.744,191.140 203.744 C 190.368 203.745,190.074 203.776,190.487 203.813 M183.728 203.981 C 183.897 204.025,184.173 204.025,184.342 203.981 C 184.511 203.936,184.373 203.900,184.035 203.900 C 183.697 203.900,183.559 203.936,183.728 203.981 M193.728 203.981 C 193.897 204.025,194.173 204.025,194.342 203.981 C 194.511 203.936,194.373 203.900,194.035 203.900 C 193.697 203.900,193.559 203.936,193.728 203.981 M158.498 214.605 L 157.982 215.175 158.553 214.660 C 159.084 214.180,159.203 214.035,159.068 214.035 C 159.038 214.035,158.781 214.292,158.498 214.605 M156.482 216.447 L 155.877 217.105 156.535 216.501 C 157.147 215.938,157.274 215.789,157.140 215.789 C 157.110 215.789,156.814 216.086,156.482 216.447 M222.982 216.579 C 223.310 216.917,223.617 217.193,223.665 217.193 C 223.714 217.193,223.485 216.917,223.158 216.579 C 222.831 216.241,222.523 215.965,222.475 215.965 C 222.427 215.965,222.655 216.241,222.982 216.579 M226.667 220.230 C 226.667 220.261,226.923 220.517,227.237 220.801 L 227.807 221.316 227.292 220.746 C 226.811 220.214,226.667 220.095,226.667 220.230 M142.165 249.561 C 142.166 250.333,142.197 250.627,142.234 250.215 C 142.271 249.802,142.270 249.170,142.233 248.811 C 142.195 248.452,142.165 248.789,142.165 249.561 M240.041 249.649 C 240.041 249.987,240.077 250.125,240.121 249.956 C 240.165 249.787,240.165 249.511,240.121 249.342 C 240.077 249.173,240.041 249.311,240.041 249.649 M142.165 253.596 C 142.166 254.368,142.197 254.662,142.234 254.250 C 142.271 253.837,142.270 253.206,142.233 252.846 C 142.195 252.487,142.165 252.825,142.165 253.596 M156.579 285.965 C 157.443 286.833,158.190 287.544,158.238 287.544 C 158.287 287.544,157.619 286.833,156.754 285.965 C 155.890 285.096,155.143 284.386,155.095 284.386 C 155.047 284.386,155.715 285.096,156.579 285.965 M226.833 285.746 L 226.228 286.404 226.886 285.799 C 227.248 285.466,227.544 285.170,227.544 285.141 C 227.544 285.007,227.395 285.133,226.833 285.746 M223.235 289.342 L 222.719 289.912 223.289 289.397 C 223.821 288.917,223.940 288.772,223.805 288.772 C 223.775 288.772,223.518 289.029,223.235 289.342 M186.711 301.349 C 186.879 301.393,187.156 301.393,187.325 301.349 C 187.493 301.305,187.355 301.269,187.018 301.269 C 186.680 301.269,186.542 301.305,186.711 301.349 M196.360 301.349 C 196.529 301.393,196.805 301.393,196.974 301.349 C 197.143 301.305,197.004 301.269,196.667 301.269 C 196.329 301.269,196.191 301.305,196.360 301.349 M188.907 301.531 C 189.222 301.570,189.696 301.569,189.959 301.529 C 190.223 301.489,189.965 301.457,189.386 301.458 C 188.807 301.459,188.591 301.492,188.907 301.531 M193.994 301.531 C 194.310 301.570,194.783 301.569,195.047 301.529 C 195.311 301.489,195.053 301.457,194.474 301.458 C 193.895 301.459,193.679 301.492,193.994 301.531 " stroke="none" fill="#75757a" fill-rule="evenodd"></path></g></svg>